<?xml version="1.0" encoding="UTF-8" standalone="no"?>
<!-- Created with Inkscape (http://www.inkscape.org/) -->

<svg
   width="96"
   height="96"
   viewBox="0 0 25.399999 25.4"
   version="1.1"
   id="svg5"
   xml:space="preserve"
   inkscape:version="1.2.2 (b0a8486541, 2022-12-01)"
   sodipodi:docname="drawing.svg"
   xmlns:inkscape="http://www.inkscape.org/namespaces/inkscape"
   xmlns:sodipodi="http://sodipodi.sourceforge.net/DTD/sodipodi-0.dtd"
   xmlns="http://www.w3.org/2000/svg"
   xmlns:svg="http://www.w3.org/2000/svg"><sodipodi:namedview
     id="namedview7"
     pagecolor="#ffffff"
     bordercolor="#000000"
     borderopacity="0.25"
     inkscape:showpageshadow="2"
     inkscape:pageopacity="0.0"
     inkscape:pagecheckerboard="0"
     inkscape:deskcolor="#d1d1d1"
     inkscape:document-units="mm"
     showgrid="false"
     inkscape:zoom="1.4734708"
     inkscape:cx="93.995754"
     inkscape:cy="56.329585"
     inkscape:window-width="960"
     inkscape:window-height="1007"
     inkscape:window-x="960"
     inkscape:window-y="0"
     inkscape:window-maximized="0"
     inkscape:current-layer="layer1" /><defs
     id="defs2" /><g
     inkscape:label="Layer 1"
     inkscape:groupmode="layer"
     id="layer1"><path
       style="fill:#000000;stroke-width:0.264583"
       id="path3096"
       d="" /><path
       style="fill:#000000;stroke-width:0.264583"
       id="path3040"
       d="" /><path
       style="fill:#000000;stroke-width:0.264583"
       d="M 1.3570138,20.919192 C 0.09027583,20.278255 0.01824783,19.790727 0.09228183,12.35881 l 0.06889,-6.9158505 0.661458,-0.549825 C 1.4690808,4.3557855 1.7387338,4.3431085 12.705281,4.3345055 l 11.221191,-0.0088 0.751205,0.841404 0.751205,0.841404 v 6.5800655 c 0,7.309533 -0.104289,7.849177 -1.618943,8.377188 -1.260171,0.439298 -21.5759422,0.397156 -22.4529252,-0.04658 z m 3.169786,-3.893489 v -1.5875 h -1.455209 -1.455208 v 1.5875 1.5875 h 1.455208 1.455209 z m 14.5520822,0 v -1.5875 h -6.35 -6.3499992 v 1.5875 1.5875 h 6.3499992 6.35 z m 4.7625,0 v -1.5875 h -1.455208 -1.455209 v 1.5875 1.5875 h 1.455209 1.455208 z M 4.5267998,12.79237 v -1.5875 h -1.455209 -1.455208 v 1.5875 1.5875 h 1.455208 1.455209 z m 4.7625,0 v -1.5875 h -1.455209 -1.455208 v 1.5875 1.5875 h 1.455208 1.455209 z m 5.0270822,0 v -1.5875 h -1.5875 -1.5875 v 1.5875 1.5875 h 1.5875 1.5875 z m 4.7625,0 v -1.5875 h -1.455208 -1.455209 v 1.5875 1.5875 h 1.455209 1.455208 z m 4.7625,0 v -1.5875 h -1.455208 -1.455209 v 1.5875 1.5875 h 1.455209 1.455208 z M 4.5267998,8.4267455 v -1.455209 h -1.455209 -1.455208 v 1.455209 1.455208 h 1.455208 1.455209 z m 4.7625,0 v -1.455209 h -1.455209 -1.455208 v 1.455209 1.455208 h 1.455208 1.455209 z m 5.0270822,0 v -1.455209 h -1.5875 -1.5875 v 1.455209 1.455208 h 1.5875 1.5875 z m 4.7625,0 v -1.455209 h -1.455208 -1.455209 v 1.455209 1.455208 h 1.455209 1.455208 z m 4.7625,0 v -1.455209 h -1.455208 -1.455209 v 1.455209 1.455208 h 1.455209 1.455208 z"
       id="path3154" /></g></svg>
